# xmcd CD database file
#
# Track frame offsets:
#	187
#	12187
#	31199
#	46652
#
# Disc length: 941 seconds
#
# Revision: 2
# Processed by: cddbd v1.5.1PL0 Copyright (c) Steve Scherf et al.
# Submitted via: CDex 1.51
#
DISCID=1f03ab04
DTITLE=Izzy Stradlin and the Ju Ju Hounds - Pressure Drop EP Bonus CD
DYEAR=1992
DGENRE=Hard Rock
TTITLE0=Pressure drop
TTITLE1=Been a fix
TTITLE2=Came unglued
TTITLE3=Can't hear 'em
EXTD=YEAR: 1992
EXTT0=
EXTT1=
EXTT2=
EXTT3=
PLAYORDER=
